<svg xmlns="http://www.w3.org/2000/svg" version="1.0" fill="#a3a7ae" width="512.000000pt" height="512.000000pt" viewBox="0 0 512.000000 512.000000" preserveAspectRatio="xMidYMid meet">
    
    <g transform="translate(0.000000,512.000000) scale(0.100000,-0.100000)" >
    <path stroke-width="10" d="M2080 5090 c-535 -74 -1123 -393 -1391 -757 -81 -109 -224 -371 -316 -578 -13 -27 -43 -79 -69 -115 -25 -36 -70 -112 -99 -170 -196 -388 -254 -885 -160 -1356 58 -289 164 -516 317 -680 35 -38 98 -121 139 -184 94 -143 176 -245 302 -376 65 -69 108 -123 129 -165 44 -88 183 -225 322 -318 578 -384 1437 -479 2136 -235 181 63 296 134 388 241 54 62 254 201 396 275 143 74 238 169 307 309 42 84 125 195 226 301 168 177 273 379 342 660 53 214 65 333 65 628 0 292 -8 347 -63 445 -15 27 -36 86 -46 130 -9 44 -32 131 -51 192 -27 90 -34 130 -34 198 0 239 -117 475 -354 711 -124 123 -245 213 -376 279 -52 26 -79 49 -128 108 -144 175 -331 300 -574 386 -173 60 -234 66 -538 49 -14 -1 -86 3 -160 10 -182 15 -630 23 -710 12z m495 -90 c44 -10 91 -23 105 -28 22 -8 17 -11 -35 -17 -226 -27 -408 -82 -630 -189 -169 -82 -302 -161 -421 -252 -45 -35 -130 -85 -188 -113 -173 -81 -314 -174 -437 -287 -32 -30 -68 -54 -79 -54 -42 0 -186 -55 -261 -101 -44 -26 -79 -42 -79 -35 0 36 209 293 342 422 362 350 810 575 1299 653 209 34 242 34 384 1z m215 21 c19 -5 21 -8 10 -13 -9 -3 -29 0 -45 7 -22 10 -25 13 -10 13 11 0 31 -3 45 -7z m581 -35 c155 -41 293 -103 416 -188 79 -55 122 -97 57 -56 -123 78 -363 184 -539 239 -116 36 -67 39 66 5z m-262 -12 c146 -33 324 -92 462 -153 102 -46 333 -174 344 -190 2 -5 -15 -5 -38 0 -23 4 -77 8 -119 9 -76 0 -77 0 -142 49 -191 145 -402 229 -656 264 l-95 13 45 16 c60 22 65 22 199 -8z m-1597 -129 c-270 -131 -472 -274 -689 -490 -123 -123 -136 -134 -100 -82 159 228 424 422 807 594 143 63 133 51 -18 -22z m1412 10 c138 -90 246 -201 326 -334 l38 -64 -48 -58 c-26 -31 -64 -84 -84 -116 l-36 -58 -98 95 c-151 147 -297 219 -528 259 l-109 19 110 109 c61 60 137 128 170 151 55 38 66 41 125 41 62 1 70 -2 134 -44z m-485 -114 l-138 -140 -135 -11 c-137 -10 -258 -29 -374 -55 -35 -8 -66 -15 -70 -15 -4 0 31 25 78 56 108 70 338 183 455 224 84 30 270 78 306 79 9 1 -46 -62 -122 -138z m731 102 c96 -27 300 -125 375 -180 l49 -36 -50 -17 c-62 -21 -106 -44 -163 -83 -29 -20 -46 -26 -49 -19 -22 68 -192 268 -292 346 l-35 27 40 -7 c22 -4 78 -17 125 -31z m770 -293 c124 -31 144 -43 183 -107 159 -261 247 -590 247 -913 0 -115 6 -110 -129 -103 -64 3 -117 6 -117 7 -1 0 3 53 8 116 27 341 -77 660 -305 936 l-77 94 57 -6 c32 -3 92 -14 133 -24z m-221 -37 c170 -180 297 -424 336 -651 15 -87 19 -310 7 -392 l-7 -44 -60 -12 c-131 -27 -210 -68 -278 -144 -61 -68 -87 -139 -87 -238 0 -181 72 -315 199 -374 28 -12 51 -25 51 -28 0 -3 -17 -57 -39 -120 -63 -185 -122 -330 -134 -330 -44 0 -344 241 -437 351 l-41 49 55 83 c109 164 176 342 176 470 0 56 -34 250 -80 457 l-18 84 24 42 c82 140 86 427 9 646 l-25 73 32 28 c54 46 186 102 248 106 8 1 39 -25 69 -56z m-1551 -95 c-44 -61 -142 -204 -216 -317 -74 -113 -139 -210 -143 -215 -4 -5 -93 24 -197 63 -104 39 -228 81 -275 94 l-86 22 51 70 c28 39 94 113 147 165 l96 95 110 34 c177 54 405 96 542 100 l52 1 -81 -112z m412 76 c106 -27 210 -73 297 -132 65 -44 203 -184 203 -206 0 -8 -18 -58 -39 -112 -36 -93 -100 -286 -136 -416 l-16 -57 -47 5 c-162 19 -364 68 -599 145 -155 51 -363 126 -371 133 -6 6 292 452 383 575 l78 103 76 -7 c42 -4 119 -18 171 -31z m781 -244 c38 -147 35 -350 -8 -450 l-15 -35 -32 90 c-42 117 -66 170 -110 245 l-36 62 30 54 c17 30 52 82 78 116 l46 61 14 -34 c8 -19 23 -68 33 -109z m1081 -90 c44 -52 116 -149 160 -215 87 -130 235 -420 245 -478 5 -34 -24 -152 -46 -185 -7 -11 -26 -5 -94 27 -46 22 -128 53 -181 68 l-96 28 0 137 c0 283 -66 581 -176 801 -14 27 -7 23 46 -28 34 -33 98 -103 142 -155z m61 61 c163 -151 316 -400 341 -556 5 -33 -4 -21 -52 71 -101 191 -220 363 -362 524 -65 74 -69 80 -30 50 24 -19 71 -59 103 -89z m-3201 22 c-27 -32 -66 -83 -86 -114 l-37 -57 -67 5 c-37 3 -71 5 -75 6 -20 5 284 217 310 217 3 0 -17 -26 -45 -57z m1877 -248 c46 -94 113 -288 106 -307 -8 -20 -95 -75 -145 -91 -59 -19 -180 -33 -180 -20 0 43 155 503 169 503 4 0 27 -38 50 -85z m-2042 3 c-71 -161 -91 -249 -84 -373 9 -161 70 -287 203 -421 l81 -81 -47 -17 c-78 -28 -197 -103 -258 -164 -120 -117 -148 -248 -85 -385 68 -144 250 -293 520 -425 209 -102 412 -162 547 -162 41 0 43 -2 94 -76 29 -42 51 -78 50 -79 -2 -1 -25 -12 -53 -25 -379 -169 -796 -134 -1139 94 -167 111 -293 254 -372 421 -65 138 -74 182 -85 440 -5 127 -13 282 -17 345 -8 113 -7 117 24 210 83 243 218 474 378 648 l58 62 95 0 c72 0 94 -3 90 -12z m178 -17 c93 -23 445 -152 445 -164 0 -5 -36 -65 -81 -133 -118 -182 -154 -277 -168 -434 l-6 -74 -44 -13 -44 -13 -55 43 c-61 46 -137 133 -176 200 -77 130 -92 302 -40 454 29 86 63 153 76 153 7 0 49 -9 93 -19z m-548 -83 c-109 -140 -190 -277 -264 -448 l-24 -55 5 121 c3 67 11 155 17 198 11 73 14 78 57 116 52 46 132 94 212 127 30 12 56 23 58 23 2 0 -26 -37 -61 -82z m1578 -278 c168 -51 357 -94 463 -106 34 -3 62 -9 62 -13 0 -7 -113 -474 -116 -479 -1 -2 -34 13 -74 33 -297 149 -726 205 -1077 139 l-36 -7 8 69 c15 140 53 231 176 420 l79 121 178 -64 c97 -36 249 -86 337 -113z m-1923 -162 c-3 -212 -7 -255 -27 -338 -52 -213 -60 -289 -60 -570 0 -231 3 -281 23 -389 12 -68 20 -126 18 -128 -6 -6 -46 147 -72 275 -66 324 -58 751 21 1080 15 62 94 312 99 312 1 0 0 -109 -2 -242z m2891 135 c7 -25 22 -95 53 -253 42 -209 34 -309 -36 -465 -34 -76 -135 -235 -149 -235 -5 0 -34 31 -65 69 -72 88 -181 191 -251 238 -38 25 -54 41 -50 52 2 9 27 111 55 226 28 116 55 227 61 248 l10 37 60 0 c95 0 261 52 284 90 10 15 23 12 28 -7z m969 -231 c37 -5 69 -10 72 -12 8 -9 -25 -196 -55 -309 -29 -111 -83 -258 -121 -334 l-19 -39 -89 4 c-49 1 -92 6 -95 10 -4 4 9 67 28 140 38 140 90 385 102 478 4 30 9 58 12 63 5 9 76 8 165 -1z m-237 -44 c-18 -116 -70 -358 -103 -481 -35 -133 -38 -138 -60 -132 -80 20 -152 108 -176 215 -41 179 9 302 152 378 48 26 142 57 185 61 5 1 6 -18 2 -41z m470 -3 c91 -27 235 -88 235 -101 0 -4 -60 -68 -133 -143 -144 -147 -201 -223 -254 -337 -36 -78 -46 -85 -109 -68 l-22 6 28 62 c68 149 126 352 151 524 6 45 13 82 14 82 2 0 42 -11 90 -25z m405 -61 c28 -96 26 -101 -22 -63 -24 18 -45 34 -47 36 -3 2 6 26 19 53 13 27 25 48 27 46 2 -2 12 -34 23 -72z m-13 -158 c60 -57 68 -77 83 -196 46 -372 0 -777 -126 -1117 -82 -224 -219 -476 -288 -532 l-41 -33 -7 51 c-14 94 -96 227 -210 339 l-65 63 33 83 c19 45 39 117 47 160 13 78 13 79 53 95 112 45 197 122 242 219 22 49 26 71 26 157 1 89 -2 105 -24 145 -31 55 -88 95 -160 113 -29 8 -56 19 -58 26 -5 16 72 157 116 211 20 25 93 102 162 172 142 143 118 138 217 44z m-4751 52 c-50 -180 -71 -612 -42 -838 26 -191 53 -311 110 -480 29 -85 56 -164 60 -175 5 -11 -4 -1 -18 22 -41 65 -105 234 -137 360 -81 322 -83 710 -3 1026 13 54 24 100 24 102 0 3 3 5 6 5 4 0 4 -10 0 -22z m2078 -18 c204 -35 496 -146 496 -188 0 -23 -69 -265 -79 -275 -4 -4 -45 10 -92 32 -133 61 -259 105 -474 166 -183 51 -375 120 -466 166 -27 13 -38 26 -43 50 -4 21 -2 35 6 40 11 7 116 23 213 33 85 9 325 -4 439 -24z m-2027 -52 c-3 -8 -6 -5 -6 6 -1 11 2 17 5 13 3 -3 4 -12 1 -19z m1267 -42 c46 -30 54 -39 60 -75 27 -173 180 -484 398 -808 37 -56 68 -105 68 -109 0 -11 -108 2 -185 21 -149 38 -392 149 -550 253 -93 61 -225 194 -255 257 -89 186 27 355 329 481 64 26 62 27 135 -20z m-1279 -218 c0 -244 9 -340 50 -543 64 -316 192 -633 358 -882 41 -62 72 -113 69 -113 -9 0 -107 62 -160 101 -43 33 -60 56 -98 132 -228 453 -308 956 -233 1460 6 42 12 77 13 77 1 0 1 -105 1 -232z m1632 59 c55 -20 160 -52 232 -72 216 -59 508 -168 558 -207 19 -15 -62 -198 -137 -308 -52 -77 -157 -173 -224 -204 -67 -32 -165 -54 -174 -39 -4 5 -55 81 -113 169 -180 269 -275 447 -339 633 -43 125 -42 125 33 91 34 -15 108 -44 164 -63z m-1383 -129 c4 -112 13 -232 21 -268 73 -362 408 -696 816 -814 265 -76 564 -57 820 53 51 23 97 37 101 33 19 -19 138 -227 135 -235 -2 -6 -43 -21 -93 -34 -118 -31 -216 -63 -408 -135 -162 -60 -361 -116 -496 -140 -81 -14 -368 -18 -411 -6 -58 17 -264 298 -356 488 -129 265 -193 597 -180 935 7 161 25 325 37 325 4 0 11 -91 14 -202z m2412 126 c73 -55 128 -109 210 -208 l74 -88 -39 -47 c-21 -25 -50 -57 -64 -69 l-25 -24 -74 49 c-40 28 -107 69 -148 93 -41 24 -76 44 -78 45 -1 1 8 38 22 81 13 43 32 107 42 142 9 34 20 62 24 62 4 0 29 -16 56 -36z m1202 -269 c34 -4 62 -9 62 -11 0 -9 -86 -144 -133 -209 -61 -85 -198 -245 -209 -245 -5 0 -1 17 7 38 29 68 113 296 136 370 22 68 25 72 49 68 14 -3 53 -8 88 -11z m252 -15 c0 -5 -7 -52 -16 -102 -10 -59 -17 -158 -18 -268 l-1 -175 -125 1 c-107 1 -137 5 -210 29 -47 15 -87 29 -89 31 -2 1 34 47 79 101 84 101 215 289 246 356 17 37 18 37 76 37 32 0 58 -4 58 -10z m203 -32 c112 -63 110 -263 -3 -392 -36 -40 -124 -96 -152 -96 -32 0 -23 318 13 474 l12 48 45 -6 c24 -3 63 -16 85 -28z m-1706 -65 c61 -38 121 -76 134 -86 l24 -18 -75 -70 c-83 -77 -264 -218 -380 -296 -92 -61 -290 -177 -294 -172 -2 2 -21 32 -44 65 l-41 62 47 12 c203 50 359 211 473 487 19 45 37 83 40 83 4 0 56 -30 116 -67z m469 -61 c107 -106 228 -204 329 -268 41 -26 75 -54 75 -61 0 -24 -49 -112 -68 -122 -10 -5 -38 -7 -61 -4 -35 5 -51 14 -80 47 -111 125 -275 280 -375 352 l-29 21 54 61 c30 33 57 61 60 61 3 1 46 -39 95 -87z m6 -311 c76 -74 138 -137 138 -141 0 -3 -28 -12 -62 -19 -180 -36 -361 -175 -457 -350 l-28 -53 -159 -3 c-88 -2 -192 -10 -231 -18 -40 -7 -73 -10 -73 -7 0 4 -34 63 -75 133 -41 69 -75 128 -75 131 0 3 19 15 43 27 158 80 470 301 631 448 l89 80 61 -47 c33 -26 123 -107 198 -181z m610 -97 c99 -35 240 -57 320 -50 l67 6 -6 -37 c-8 -54 -50 -185 -66 -207 -13 -17 -18 -15 -89 33 -97 65 -243 136 -333 162 -38 11 -76 23 -84 25 -9 3 4 21 40 54 33 30 60 47 69 44 8 -4 45 -17 82 -30z m1115 14 c-3 -8 -6 -5 -6 6 -1 11 2 17 5 13 3 -3 4 -12 1 -19z m-4620 -40 c-3 -8 -6 -5 -6 6 -1 11 2 17 5 13 3 -3 4 -12 1 -19z m4610 0 c-3 -8 -6 -5 -6 6 -1 11 2 17 5 13 3 -3 4 -12 1 -19z m-10 -40 c-3 -8 -6 -5 -6 6 -1 11 2 17 5 13 3 -3 4 -12 1 -19z m-41 -143 c-20 -58 -43 -118 -51 -133 -9 -15 -13 -18 -9 -7 4 11 25 75 48 141 23 67 42 118 44 113 2 -4 -13 -55 -32 -114z m-1459 80 c6 -19 -268 -190 -449 -281 l-91 -46 21 34 c95 149 226 250 382 292 61 17 132 17 137 1z m384 -64 c75 -31 215 -113 262 -152 l31 -26 -29 -39 c-46 -61 -139 -149 -205 -194 -34 -23 -63 -40 -64 -38 -2 1 -22 46 -45 99 -34 79 -115 224 -181 326 -12 19 -12 26 2 57 l17 35 73 -20 c40 -11 103 -33 139 -48z m-374 -105 c-27 -50 -83 -144 -124 -208 l-74 -117 -67 37 c-37 20 -100 48 -140 63 l-74 26 143 79 c78 43 195 113 258 155 64 41 119 71 122 66 4 -5 -16 -50 -44 -101z m153 -61 c55 -91 135 -253 145 -296 6 -24 2 -28 -65 -58 -39 -17 -104 -40 -145 -52 l-74 -20 -78 62 c-43 34 -77 65 -76 69 1 4 28 48 60 97 32 49 83 133 113 186 30 54 58 97 61 97 4 0 31 -38 59 -85z m642 -123 c114 -117 178 -238 178 -332 0 -36 -1 -37 -87 -78 -139 -64 -279 -102 -382 -102 -45 0 -51 3 -55 23 -3 20 -42 196 -53 242 -3 16 9 29 59 62 82 54 177 141 223 203 20 28 40 50 44 50 4 0 37 -30 73 -68z m-1536 -64 c-30 -17 -258 -108 -272 -108 -18 0 -47 90 -31 95 28 10 159 23 237 23 67 1 81 -1 66 -10z m279 -30 c38 -11 104 -38 148 -59 l78 -40 -28 -38 c-73 -98 -66 -93 -120 -80 -58 15 -120 44 -151 73 -37 33 -52 70 -52 126 0 58 -8 57 125 18z m-641 -49 c11 -28 15 -54 10 -59 -13 -12 -267 -92 -439 -139 -82 -22 -276 -70 -430 -105 -154 -35 -303 -70 -332 -77 -50 -12 -54 -11 -92 15 -22 16 -57 43 -78 62 l-38 33 125 1 c232 1 415 41 770 170 186 67 278 96 440 139 19 5 37 10 41 10 3 1 13 -22 23 -50z m446 20 c0 -104 113 -220 240 -245 16 -4 30 -11 30 -16 0 -5 -55 -64 -122 -131 -111 -111 -129 -125 -188 -146 -97 -34 -191 -93 -248 -156 -57 -62 -114 -89 -271 -127 -114 -28 -335 -30 -466 -4 -128 25 -265 71 -380 126 -106 51 -315 184 -315 200 0 18 29 10 93 -25 298 -164 645 -175 953 -31 236 112 313 196 322 353 l4 81 142 58 c77 31 152 63 166 70 34 18 40 17 40 -7z m572 -186 c8 -10 3 -13 -23 -13 -19 0 -58 -3 -86 -6 -31 -4 -53 -3 -53 3 0 5 14 28 31 51 l31 42 44 -32 c25 -18 50 -38 56 -45z m427 10 c21 -78 41 -169 41 -186 0 -16 -5 -18 -32 -12 -18 4 -58 18 -88 31 -56 25 -183 104 -177 110 1 2 43 17 92 35 50 17 101 37 115 45 36 19 38 18 49 -23z m-3156 -37 c66 -29 87 -45 188 -150 111 -116 113 -119 93 -135 -11 -9 -29 -29 -39 -44 l-18 -28 -54 53 c-86 84 -293 340 -293 362 0 4 11 -1 25 -10 13 -8 57 -30 98 -48z m1747 33 c0 -16 -5 -50 -11 -75 -29 -112 -212 -236 -456 -306 -68 -20 -100 -23 -243 -22 -135 0 -179 4 -241 22 -90 24 -243 92 -232 102 4 4 94 26 198 49 396 89 878 218 935 252 32 18 50 10 50 -22z m1130 -119 c89 -66 179 -112 263 -135 l67 -18 0 -56 c0 -64 -13 -157 -29 -216 l-11 -41 -92 9 c-207 19 -317 -9 -553 -142 -77 -44 -142 -78 -144 -76 -1 2 8 19 22 37 81 106 127 271 94 335 -23 44 -72 81 -115 88 -93 15 -92 8 -11 93 41 42 89 94 106 115 l32 37 88 1 c48 0 111 4 138 9 28 4 56 8 64 9 7 0 44 -22 81 -49z m-2548 -93 c32 -25 53 -49 48 -52 -5 -3 -46 32 -93 77 -46 46 -67 69 -48 52 20 -17 62 -52 93 -77z m3433 33 c-9 -30 -212 -238 -301 -310 -59 -47 -84 -60 -143 -75 -40 -9 -74 -16 -75 -14 -2 2 2 33 10 69 7 36 14 102 14 147 l0 81 68 7 c139 14 304 59 397 108 35 18 39 16 30 -13z m-3375 -186 c22 -26 219 -153 304 -196 216 -109 398 -157 621 -165 167 -6 282 9 412 52 40 14 76 25 78 25 3 0 5 -11 5 -25 0 -78 89 -164 225 -220 l56 -22 -78 -21 c-264 -71 -637 -39 -1103 96 -105 31 -281 130 -447 253 -183 135 -201 163 -142 213 35 30 51 32 69 10z m2011 -47 c33 -22 34 -25 34 -88 0 -57 -5 -77 -40 -144 -48 -96 -148 -201 -199 -210 -43 -8 -147 18 -203 51 -56 33 -111 88 -119 119 -12 48 3 68 83 114 43 24 112 69 153 99 103 76 116 82 191 82 53 0 73 -5 100 -23z m-1912 -264 c79 -57 89 -67 73 -77 -9 -5 -152 110 -168 135 -9 15 -1 10 95 -58z m2557 35 c52 -6 94 -14 94 -18 0 -3 -13 -27 -30 -53 -27 -42 -41 -52 -152 -106 -219 -105 -419 -169 -663 -212 -139 -24 -503 -37 -620 -21 l-70 9 116 2 c188 2 372 42 484 106 22 13 56 26 75 30 51 11 128 47 272 126 154 85 248 126 319 138 75 12 70 12 175 -1z m194 -18 c-14 -11 -28 -20 -32 -20 -14 0 4 29 20 33 34 9 36 6 12 -13z m-2225 -295 c143 -56 374 -116 540 -141 147 -22 513 -25 650 -6 227 33 429 85 610 159 148 60 148 60 85 18 -94 -63 -206 -106 -400 -154 -217 -54 -360 -71 -605 -71 -300 0 -533 36 -807 127 -117 38 -398 163 -398 176 0 8 198 -58 325 -108z" style="stroke-width: 2rem; stroke: #a3a7ae;"/>
    </g>
    </svg>